<?xml version="1.0" encoding="UTF-8"?>
<svg width="224px" height="49px" viewBox="0 0 224 49" version="1.1" xmlns="http://www.w3.org/2000/svg" xmlns:xlink="http://www.w3.org/1999/xlink">
    <title>0.0_general/img_logo_metro-black</title>
    <defs>
        <polygon id="path-1" points="0.42755102 0.783163265 12.2255102 0.783163265 12.2255102 14.9954082 0.42755102 14.9954082"></polygon>
        <polygon id="path-3" points="0 48.9795918 223.45 48.9795918 223.45 0.482653061 0 0.482653061"></polygon>
    </defs>
    <g id="Page-1" stroke="none" stroke-width="1" fill="none" fill-rule="evenodd">
        <g id="0.0_general" transform="translate(-60.000000, -21.000000)">
            <g id="Group-95" transform="translate(60.000000, 20.000000)">
                <path d="M147.233776,15.5537755 L150.882755,15.5007143 L156.190918,29.6588776 L152.758265,29.6058163 L151.204184,24.6711224 L145.731735,24.6180612 L143.266429,29.765 L139.938878,29.6058163 L147.233776,15.5537755 Z M146.867449,22.6547959 L150.56949,22.7078571 L148.906224,18.0415306 L146.867449,22.6547959 Z" id="Fill-1" fill="#231F20"></path>
                <g id="Group-94" transform="translate(0.000000, 0.537245)">
                    <path d="M35.9584694,40.3080612 C35.9584694,40.3080612 35.3584694,33.6162245 52.5390816,20.5315306 C52.5390816,20.5315306 61.1288776,12.8407143 78.1084694,4.55091837 C78.1084694,4.55091837 91.0931633,-1.64193878 94.8890816,1.255 C94.8890816,1.255 100.682959,3.95193878 90.7931633,15.4376531 C90.7931633,15.4376531 78.7084694,28.1233673 64.5247959,35.0141837 C64.5247959,35.0141837 51.340102,41.9060204 44.4482653,43.6039796 C44.4482653,43.6039796 35.9584694,45.9009184 35.9584694,40.3080612 M95.5890816,5.44989796 C96.2870408,-0.243979592 88.5962245,1.65397959 88.5962245,1.65397959 C74.1135714,5.44989796 56.9339796,18.3345918 56.9339796,18.3345918 C52.4390816,21.3305102 44.2482653,29.1213265 44.2482653,29.1213265 C39.2543878,34.1162245 38.3554082,37.4121429 38.3554082,37.4121429 C36.157449,43.5039796 44.4482653,41.7070408 44.4482653,41.7070408 C51.640102,39.9080612 53.8370408,38.960102 61.9778571,35.1641837 C70.1186735,31.3682653 76.1605102,26.5243878 76.1605102,26.5243878 C95.3380612,12.6407143 95.5890816,5.44989796 95.5890816,5.44989796" id="Fill-2" fill="#C6C7C9"></path>
                    <polygon id="Fill-4" fill="#231F20" points="0 29.3212245 3.19693878 14.0395918 9.88877551 14.0395918 12.3857143 21.7304082 15.2826531 14.0395918 21.8744898 14.0395918 24.8714286 29.3212245 18.4785714 29.3212245 17.2806122 21.1314286 14.1836735 29.3212245 10.4877551 29.3212245 7.49183673 21.0314286 6.29285714 29.3212245"></polygon>
                    <polygon id="Fill-6" fill="#231F20" points="26.8684694 14.0394898 38.9541837 14.0394898 38.9541837 18.0343878 33.2613265 18.1343878 33.2613265 19.9323469 38.0552041 19.8323469 38.1552041 23.4282653 33.2613265 23.3282653 33.2613265 25.4252041 38.8552041 25.5252041 38.9541837 29.3211224 26.8684694 29.3211224"></polygon>
                    <polygon id="Fill-8" fill="#231F20" points="40.752551 14.0394898 54.5892857 14.1456122 54.5362245 18.9333673 50.8403061 18.9333673 50.8403061 29.3211224 44.4484694 29.3211224 44.4484694 18.9333673 40.752551 18.9333673"></polygon>
                    <path d="M56.9739796,14.0893878 L64.7903061,14.0893878 C64.7903061,14.0893878 71.2984694,13.8332653 72.2872449,17.32 C72.2872449,17.32 73.9535714,21.4302041 70.2056122,22.9414286 C70.2056122,22.9414286 69.8372449,23.147551 69.3188776,23.2536735 L74.0076531,29.3210204 L66.5096939,29.3210204 L63.4882653,24.7638776 L63.3260204,29.3210204 L56.9739796,29.3210204 L56.9739796,14.0893878 Z M65.1556122,21.0689796 C66.9841837,20.7036735 66.3005102,18.8802041 66.3005102,18.8802041 C65.9882653,17.6822449 63.3260204,17.7883673 63.3260204,17.7883673 L63.3260204,21.1189796 L65.1556122,21.0689796 Z" id="Fill-10" fill="#231F20"></path>
                    <path d="M97.7289796,15.0693878 L105.023878,15.0693878 C105.023878,15.0693878 109.041224,14.694898 108.507551,18.8244898 C108.507551,18.8244898 108.725918,20.5408163 106.471837,21.827551 C106.471837,21.827551 109.044286,23.1132653 108.774898,25.7408163 C108.774898,25.7408163 108.935102,28.6091837 104.699388,29.3214286 L97.0830612,29.3214286 L97.7289796,15.0693878 Z M100.301429,27.1887755 L103.897347,27.1887755 C105.989184,26.8142857 105.772857,25.044898 105.772857,25.044898 C106.041224,23.1163265 103.950408,22.9010204 103.950408,22.9010204 L100.410612,22.9010204 L100.301429,27.1887755 Z M100.463673,21.0214286 L103.787143,20.9683673 C105.769796,20.5408163 105.614694,19.0928571 105.614694,19.0928571 C105.992245,17.3785714 104.003469,17.1612245 104.003469,17.1612245 L100.568776,17.1612245 L100.463673,21.0214286 Z" id="Fill-12" fill="#231F20"></path>
                    <path d="M110.869796,29.3212245 L111.672857,15.1222449 L118.108571,14.9630612 C118.108571,14.9630612 122.83102,14.7477551 122.562653,18.5559184 C122.562653,18.5559184 122.884082,21.8834694 118.860612,22.9008163 L122.132041,29.3212245 L118.807551,29.3212245 L115.320816,21.6120408 C115.320816,21.6120408 117.893265,21.7171429 118.43,21.0742857 C118.43,21.0742857 120.952449,19.4640816 118.914694,17.5355102 C118.914694,17.5355102 117.521837,16.7834694 114.410612,17.2140816 L113.97898,29.3212245 L110.869796,29.3212245 Z" id="Fill-14" fill="#231F20"></path>
                    <path d="M124.279592,22.2545918 C124.279592,22.2545918 123.582653,15.4066327 132.217347,14.7483868 C132.217347,14.7483868 140.853061,14.6382653 140.10102,22.469898 C140.10102,22.469898 140.579592,29.1464286 131.838776,29.5362245 C131.838776,29.5362245 124.067347,29.9239796 124.279592,22.2545918 M132.376531,16.9454082 C127.226531,17.0515306 127.229592,22.469898 127.229592,22.469898 C127.496939,27.8862245 132.164286,27.2423469 132.164286,27.2423469 C137.045918,27.1331633 137.095918,22.6852041 137.095918,22.6852041 C137.308163,16.7331633 132.376531,16.9454082 132.376531,16.9454082" id="Fill-16" fill="#231F20"></path>
                    <path d="M157.855408,15.0693878 L164.93398,14.9632653 C164.93398,14.9632653 170.562551,14.3173469 170.940102,20.9683673 C170.940102,20.9683673 171.745204,28.1510204 164.719694,28.9591837 L157.103367,28.9591837 L157.855408,15.0693878 Z M160.482959,17.0010204 L160.15949,26.8683673 C160.15949,26.8683673 166.114592,27.9387755 167.563571,24.2928571 C167.563571,24.2928571 169.227857,20.1102041 166.920714,18.0193878 C166.920714,18.0193878 165.202347,16.7897959 163.217653,17.0010204 L160.482959,17.0010204 Z" id="Fill-18" fill="#231F20"></path>
                    <path d="M183.170306,17.0011224 C178.877449,16.1990816 177.217245,18.5031633 177.217245,18.5031633 C173.946837,22.9164286 177.485612,26.1715306 177.485612,26.1715306 C179.844796,28.2092857 184.512143,26.867449 184.512143,26.867449 L184.617245,28.6378571 L191.860102,15.0694898 L195.345816,15.0694898 L200.601939,29.1215306 L197.437653,29.1745918 L195.667245,24.0807143 L190.142755,24.1337755 L187.72949,29.0684694 L184.348878,29.0684694 C177.324388,30.7317347 174.694796,27.4041837 174.694796,27.4041837 C170.565204,22.1480612 174.642755,17.2133673 174.642755,17.2133673 C177.860102,13.3521429 184.617245,15.122551 184.617245,15.122551 L184.671327,17.3766327 L183.170306,17.0011224 Z M191.322347,22.0419388 L195.024388,22.095 L193.361122,17.4286735 L191.322347,22.0419388 Z" id="Fill-20" fill="#231F20"></path>
                    <path d="M201.192857,26.7088776 L201.192857,28.7996939 C201.192857,28.7996939 202.637755,29.7639796 206.502041,29.4435714 C206.502041,29.4435714 211.330612,29.4956122 209.934694,24.5078571 C209.934694,24.5078571 210.203061,23.8619388 205.215306,19.842551 C205.215306,19.842551 204.088776,18.0721429 206.126531,17.2139796 C206.126531,17.2139796 208.64898,16.7333673 209.882653,17.6976531 L209.719388,15.2313265 C209.719388,15.2313265 206.392857,14.4262245 203.015306,15.9282653 C203.015306,15.9282653 200.068367,17.6476531 202.803061,21.1313265 L206.716327,24.6139796 C206.716327,24.6139796 208.215306,26.7088776 205.642857,27.2986735 C205.642857,27.2986735 202.803061,27.620102 201.192857,26.7088776" id="Fill-22" fill="#231F20"></path>
                    <g id="Group-26" transform="translate(211.224490, 14.285714)">
                        <mask id="mask-2" fill="white">
                            <use xlink:href="#path-1"></use>
                        </mask>
                        <g id="Clip-25"></g>
                        <polygon id="Fill-24" fill="#231F20" mask="url(#mask-2)" points="0.42755102 3.14336735 0.42755102 0.783163265 12.2265306 0.783163265 12.2265306 3.0372449 7.61632653 3.0372449 7.18469388 14.9954082 4.12959184 14.9954082 4.55714286 3.14336735"></polygon>
                    </g>
                    <path d="M77.6436735,21.0667347 C77.6436735,16.5861224 81.2753061,12.9544898 85.754898,12.9544898 C90.2365306,12.9544898 93.8671429,16.5861224 93.8671429,21.0667347 C93.8671429,25.5473469 90.2365306,29.1789796 85.754898,29.1789796 C81.2753061,29.1789796 77.6436735,25.5473469 77.6436735,21.0667347" id="Fill-27" fill="#EE4123"></path>
                    <path d="M77.9934694,20.9462245 C77.9934694,16.5921429 81.5220408,13.062551 85.8771429,13.062551 C90.2302041,13.062551 93.7587755,16.5921429 93.7587755,20.9462245 C93.7587755,25.3003061 90.2302041,28.829898 85.8771429,28.829898 C81.5220408,28.829898 77.9934694,25.3003061 77.9934694,20.9462245" id="Fill-29" fill="#EF4A27"></path>
                    <path d="M78.3432653,20.825102 C78.3432653,16.597551 81.7687755,13.1710204 85.9973469,13.1710204 C90.224898,13.1710204 93.6514286,16.597551 93.6514286,20.825102 C93.6514286,25.0526531 90.224898,28.4791837 85.9973469,28.4791837 C81.7687755,28.4791837 78.3432653,25.0526531 78.3432653,20.825102" id="Fill-31" fill="#EF532C"></path>
                    <path d="M78.6930612,20.7045918 C78.6930612,16.6035714 82.017551,13.2790816 86.117551,13.2790816 C90.2195918,13.2790816 93.5440816,16.6035714 93.5440816,20.7045918 C93.5440816,24.8056122 90.2195918,28.1290816 86.117551,28.1290816 C82.017551,28.1290816 78.6930612,24.8056122 78.6930612,20.7045918" id="Fill-33" fill="#F05B32"></path>
                    <path d="M79.0427551,20.5839796 C79.0427551,16.6094898 82.2641837,13.3870408 86.2396939,13.3870408 C90.2131633,13.3870408 93.4345918,16.6094898 93.4345918,20.5839796 C93.4345918,24.5584694 90.2131633,27.779898 86.2396939,27.779898 C82.2641837,27.779898 79.0427551,24.5584694 79.0427551,20.5839796" id="Fill-35" fill="#F16239"></path>
                    <path d="M79.392551,20.4628571 C79.392551,16.614898 82.5119388,13.4955102 86.3588776,13.4955102 C90.2078571,13.4955102 93.3272449,16.614898 93.3272449,20.4628571 C93.3272449,24.3108163 90.2078571,27.4302041 86.3588776,27.4302041 C82.5119388,27.4302041 79.392551,24.3108163 79.392551,20.4628571" id="Fill-37" fill="#F16A40"></path>
                    <path d="M79.7423469,20.3423469 C79.7423469,16.6209184 82.7586735,13.6035714 86.4811224,13.6035714 C90.202551,13.6035714 93.2188776,16.6209184 93.2188776,20.3423469 C93.2188776,24.0627551 90.202551,27.0811224 86.4811224,27.0811224 C82.7586735,27.0811224 79.7423469,24.0627551 79.7423469,20.3423469" id="Fill-39" fill="#F27148"></path>
                    <path d="M80.0920408,20.2212245 C80.0920408,16.6263265 83.0063265,13.7120408 86.6012245,13.7120408 C90.195102,13.7120408 93.1104082,16.6263265 93.1104082,20.2212245 C93.1104082,23.8161224 90.195102,26.7304082 86.6012245,26.7304082 C83.0063265,26.7304082 80.0920408,23.8161224 80.0920408,20.2212245" id="Fill-41" fill="#F3784F"></path>
                    <path d="M80.4418367,20.1002041 C80.4418367,16.6318367 83.2540816,13.8206122 86.7214286,13.8206122 C90.1908163,13.8206122 93.0020408,16.6318367 93.0020408,20.1002041 C93.0020408,23.5685714 90.1908163,26.3808163 86.7214286,26.3808163 C83.2540816,26.3808163 80.4418367,23.5685714 80.4418367,20.1002041" id="Fill-43" fill="#F37F57"></path>
                    <path d="M80.7916327,19.9795918 C80.7916327,16.6377551 83.5008163,13.9285714 86.8436735,13.9285714 C90.1855102,13.9285714 92.8936735,16.6377551 92.8936735,19.9795918 C92.8936735,23.3214286 90.1855102,26.0316327 86.8436735,26.0316327 C83.5008163,26.0316327 80.7916327,23.3214286 80.7916327,19.9795918" id="Fill-45" fill="#F4855E"></path>
                    <path d="M81.1414286,19.8590816 C81.1414286,16.6437755 83.7485714,14.0366327 86.9628571,14.0366327 C90.1791837,14.0366327 92.7863265,16.6437755 92.7863265,19.8590816 C92.7863265,23.0743878 90.1791837,25.6815306 86.9628571,25.6815306 C83.7485714,25.6815306 81.1414286,23.0743878 81.1414286,19.8590816" id="Fill-47" fill="#F58B65"></path>
                    <path d="M81.4911224,19.7379592 C81.4911224,16.6491837 83.9952041,14.145102 87.0839796,14.145102 C90.1737755,14.145102 92.6778571,16.6491837 92.6778571,19.7379592 C92.6778571,22.8277551 90.1737755,25.3318367 87.0839796,25.3318367 C83.9952041,25.3318367 81.4911224,22.8277551 81.4911224,19.7379592" id="Fill-49" fill="#F5926D"></path>
                    <path d="M81.8409184,19.6173469 C81.8409184,16.6540816 84.2429592,14.2530612 87.2052041,14.2530612 C90.1684694,14.2530612 92.5705102,16.6540816 92.5705102,19.6173469 C92.5705102,22.5795918 90.1684694,24.9816327 87.2052041,24.9816327 C84.2429592,24.9816327 81.8409184,22.5795918 81.8409184,19.6173469" id="Fill-51" fill="#F69874"></path>
                    <path d="M82.1896939,19.4963265 C82.1896939,16.6606122 84.4896939,14.3606122 87.3254082,14.3606122 C90.1611224,14.3606122 92.4611224,16.6606122 92.4611224,19.4963265 C92.4611224,22.3330612 90.1611224,24.6320408 87.3254082,24.6320408 C84.4896939,24.6320408 82.1896939,22.3330612 82.1896939,19.4963265" id="Fill-53" fill="#F79F7C"></path>
                    <path d="M82.5405102,19.3757143 C82.5405102,16.6655102 84.7364286,14.4685714 87.4476531,14.4685714 C90.1568367,14.4685714 92.3537755,16.6655102 92.3537755,19.3757143 C92.3537755,22.0859184 90.1568367,24.2828571 87.4476531,24.2828571 C84.7364286,24.2828571 82.5405102,22.0859184 82.5405102,19.3757143" id="Fill-55" fill="#F7A684"></path>
                    <path d="M82.8902041,19.2552041 C82.8902041,16.6715306 84.9840816,14.5776531 87.5677551,14.5776531 C90.1504082,14.5776531 92.2453061,16.6715306 92.2453061,19.2552041 C92.2453061,21.8388776 90.1504082,23.9327551 87.5677551,23.9327551 C84.9840816,23.9327551 82.8902041,21.8388776 82.8902041,19.2552041" id="Fill-57" fill="#F8AC8C"></path>
                    <path d="M83.2389796,19.1340816 C83.2389796,16.6769388 85.2318367,14.685102 87.6879592,14.685102 C90.1461224,14.685102 92.1369388,16.6769388 92.1369388,19.1340816 C92.1369388,21.5912245 90.1461224,23.5830612 87.6879592,23.5830612 C85.2318367,23.5830612 83.2389796,21.5912245 83.2389796,19.1340816" id="Fill-59" fill="#F9B495"></path>
                    <path d="M83.5887755,19.0130612 C83.5887755,16.6834694 85.4795918,14.7936735 87.8091837,14.7936735 C90.1397959,14.7936735 92.0285714,16.6834694 92.0285714,19.0130612 C92.0285714,21.3436735 90.1397959,23.2334694 87.8091837,23.2334694 C85.4795918,23.2334694 83.5887755,21.3436735 83.5887755,19.0130612" id="Fill-61" fill="#F9BB9E"></path>
                    <path d="M83.9395918,18.892449 C83.9395918,16.6883673 85.7253061,14.9016327 87.9293878,14.9016327 C90.1334694,14.9016327 91.9202041,16.6883673 91.9202041,18.892449 C91.9202041,21.0965306 90.1334694,22.8832653 87.9293878,22.8832653 C85.7253061,22.8832653 83.9395918,21.0965306 83.9395918,18.892449" id="Fill-63" fill="#FAC2A7"></path>
                    <path d="M84.2883673,18.7718367 C84.2883673,16.6942857 85.9720408,15.0095918 88.0516327,15.0095918 C90.1281633,15.0095918 91.8118367,16.6942857 91.8118367,18.7718367 C91.8118367,20.8493878 90.1281633,22.5340816 88.0516327,22.5340816 C85.9720408,22.5340816 84.2883673,20.8493878 84.2883673,18.7718367" id="Fill-65" fill="#FBC9B1"></path>
                    <path d="M84.6390816,18.6513265 C84.6390816,16.7003061 86.2207143,15.1186735 88.1717347,15.1186735 C90.1227551,15.1186735 91.7043878,16.7003061 91.7043878,18.6513265 C91.7043878,20.6023469 90.1227551,22.1839796 88.1717347,22.1839796 C86.2207143,22.1839796 84.6390816,20.6023469 84.6390816,18.6513265" id="Fill-67" fill="#FBD0BA"></path>
                    <path d="M84.9878571,18.5302041 C84.9878571,16.7057143 86.467449,15.2261224 88.2919388,15.2261224 C90.1164286,15.2261224 91.5970408,16.7057143 91.5970408,18.5302041 C91.5970408,20.3546939 90.1164286,21.8342857 88.2919388,21.8342857 C86.467449,21.8342857 84.9878571,20.3546939 84.9878571,18.5302041" id="Fill-69" fill="#FCD7C4"></path>
                    <path d="M85.3386735,18.4091837 C85.3386735,16.7112245 86.7152041,15.3346939 88.4131633,15.3346939 C90.1121429,15.3346939 91.4876531,16.7112245 91.4876531,18.4091837 C91.4876531,20.1081633 90.1121429,21.4846939 88.4131633,21.4846939 C86.7152041,21.4846939 85.3386735,20.1081633 85.3386735,18.4091837" id="Fill-71" fill="#FCDECE"></path>
                    <path d="M85.6873469,18.2885714 C85.6873469,16.7171429 86.9618367,15.4426531 88.5332653,15.4426531 C90.1057143,15.4426531 91.3802041,16.7171429 91.3802041,18.2885714 C91.3802041,19.86 90.1057143,21.1344898 88.5332653,21.1344898 C86.9618367,21.1344898 85.6873469,19.86 85.6873469,18.2885714" id="Fill-73" fill="#FDE5D8"></path>
                    <path d="M86.0381633,18.1679592 C86.0381633,16.7220408 87.2085714,15.5506122 88.6544898,15.5506122 C90.0993878,15.5506122 91.2718367,16.7220408 91.2718367,18.1679592 C91.2718367,19.6128571 90.0993878,20.7842857 88.6544898,20.7842857 C87.2085714,20.7842857 86.0381633,19.6128571 86.0381633,18.1679592" id="Fill-75" fill="#FDECE3"></path>
                    <path d="M86.3869388,18.047449 C86.3869388,16.7280612 87.4563265,15.6586735 88.7757143,15.6586735 C90.0940816,15.6586735 91.1634694,16.7280612 91.1634694,18.047449 C91.1634694,19.3658163 90.0940816,20.4352041 88.7757143,20.4352041 C87.4563265,20.4352041 86.3869388,19.3658163 86.3869388,18.047449" id="Fill-77" fill="#FEF4EE"></path>
                    <path d="M86.7376531,17.9263265 C86.7376531,16.7344898 87.7029592,15.7671429 88.8958163,15.7671429 C90.0886735,15.7671429 91.055,16.7344898 91.055,17.9263265 C91.055,19.1181633 90.0886735,20.0855102 88.8958163,20.0855102 C87.7029592,20.0855102 86.7376531,19.1181633 86.7376531,17.9263265" id="Fill-79" fill="#FEFEFE"></path>
                    <path d="M106.102551,41.8934694 L104.788265,41.8934694 L104.788265,43.5516327 C104.788265,44.42 104.662755,45.3067347 104.412755,46.2138776 C104.161735,47.1159184 103.753571,47.9802041 103.188265,48.8046939 L102.294388,48.1434694 C102.847449,47.3618367 103.233163,46.5485714 103.452551,45.7016327 C103.67398,44.8516327 103.784184,43.8434694 103.784184,42.6771429 L103.784184,38.2077551 C105.179082,38.07 106.507653,37.6536735 107.77398,36.9577551 L108.395408,37.7934694 C107.433163,38.3679592 106.230102,38.764898 104.788265,38.9853061 L104.788265,40.9220408 L108.609694,40.9220408 L108.609694,41.8934694 L107.113776,41.8934694 L107.113776,48.8179592 L106.102551,48.8179592 L106.102551,41.8934694 Z M100.17602,41.1618367 L100.720918,41.1618367 C101.130102,40.6434694 101.464796,40.0016327 101.72398,39.2373469 L98.9260204,39.2373469 C99.4443878,39.7730612 99.8617347,40.414898 100.17602,41.1618367 L100.17602,41.1618367 Z M101.860714,39.2373469 L101.860714,39.2506122 L102.631122,39.6138776 C102.458673,40.1577551 102.175,40.6740816 101.783163,41.1618367 L103.479082,41.1618367 L103.479082,42.1332653 L100.889286,42.1332653 L100.889286,43.0985714 L103.013776,43.0985714 L103.013776,44.07 L100.889286,44.07 L100.901531,44.5883673 L101.128061,44.3220408 C101.961735,44.8577551 102.611735,45.4414286 103.078061,46.0710204 L102.339286,46.7444898 C101.868878,46.1057143 101.385204,45.6332653 100.889286,45.3261224 L100.889286,48.9791837 L99.8841837,48.9791837 L99.8841837,45.4883673 C99.1545918,46.347551 98.3147959,47.0230612 97.3647959,47.5159184 C97.1841837,47.2526531 96.9821429,46.9863265 96.7627551,46.7189796 C97.9545918,46.1363265 98.9586735,45.2526531 99.775,44.07 L97.7352041,44.07 L97.7352041,43.0985714 L99.8841837,43.0985714 L99.8841837,42.1332653 L97.2678571,42.1332653 L97.2678571,41.1618367 L99.1658163,41.1618367 C98.9882653,40.7291837 98.5831633,40.2097959 97.9484694,39.6006122 L98.6739796,39.2373469 L97.5984694,39.2373469 L97.5984694,38.2730612 L99.775,38.2730612 C99.6617347,38.0567347 99.3882653,37.7240816 98.9515306,37.275102 L99.9107143,36.8281633 C100.437245,37.4546939 100.75051,37.9363265 100.85051,38.2730612 L103.091327,38.2730612 L103.091327,39.2373469 L101.860714,39.2373469 Z" id="Fill-81" fill="#231F20"></path>
                    <path d="M116.986224,44.7953061 L113.631122,46.2718367 L112.796429,45.4881633 L114.615816,44.7697959 L114.615816,41.4146939 L113.236224,41.4146939 L113.236224,40.4493878 L114.615816,40.4493878 L114.615816,37.6381633 L115.618878,37.6381633 L115.618878,40.4493878 L116.785204,40.4493878 L116.785204,41.4146939 L115.618878,41.4146939 L115.618878,44.3095918 L116.986224,43.7657143 L116.986224,44.7953061 Z M121.746429,37.9810204 L122.440306,37.3269388 C123.204592,37.5902041 123.812755,38.0371429 124.266837,38.6677551 L123.566837,39.3606122 C123.044388,38.6565306 122.438265,38.1973469 121.746429,37.9810204 L121.746429,37.9810204 Z M122.188265,44.4391837 L122.213776,44.4391837 C122.622959,43.735102 122.972959,42.6126531 123.262755,41.0708163 L124.110714,41.4402041 C123.782143,43.2759184 123.256633,44.7310204 122.531122,45.8055102 C122.725,46.385102 122.92602,46.8289796 123.132143,47.1402041 C123.344388,47.4473469 123.47602,47.6004082 123.528061,47.6004082 C123.67602,47.6004082 123.793367,46.9810204 123.884184,45.7412245 L124.869898,46.1106122 C124.764796,46.8402041 124.644388,47.3993878 124.505612,47.7881633 C124.367857,48.1718367 124.238265,48.4228571 124.117857,48.5391837 C123.996429,48.6555102 123.814796,48.7136735 123.57398,48.7136735 C123.284184,48.7136735 122.982143,48.53 122.666837,48.1636735 C122.356633,47.7963265 122.086224,47.3197959 121.856633,46.7320408 C121.287245,47.3922449 120.575,48.0034694 119.719898,48.5646939 L118.909694,47.8912245 C120.028061,47.1830612 120.896429,46.4259184 121.513776,45.6177551 C121.202551,44.4177551 120.971939,42.6902041 120.820918,40.4361224 L118.262755,40.4361224 L118.262755,41.9453061 L120.691327,41.9453061 C120.664796,43.0728571 120.609694,43.9922449 120.522959,44.7044898 C120.436224,45.4126531 120.360714,45.8422449 120.295408,45.9932653 C120.232143,46.1442857 120.134184,46.2830612 120.004592,46.4085714 C119.879082,46.5330612 119.679082,46.5963265 119.402551,46.5963265 C119.143367,46.5963265 118.789286,46.5177551 118.340306,46.3626531 L118.139286,45.2483673 C118.748469,45.5034694 119.117857,45.6310204 119.247449,45.6310204 C119.315816,45.6310204 119.362755,45.6044898 119.389286,45.5534694 C119.419898,45.5014286 119.478061,45.1340816 119.563776,44.452449 C119.64949,43.7657143 119.693367,43.2534694 119.693367,42.9167347 L118.262755,42.9167347 C118.222959,44.5320408 118.046429,45.7646939 117.731122,46.6157143 C117.415816,47.4616327 116.972959,48.2218367 116.403571,48.8953061 L115.516837,48.2473469 C116.672959,46.9646939 117.251531,45.3157143 117.251531,43.2993878 L117.251531,39.4646939 L120.768878,39.4646939 L120.730102,36.9320408 L121.669898,36.9320408 L121.720918,39.4646939 L124.415816,39.4646939 L124.415816,40.4361224 L121.759694,40.4361224 C121.82398,41.6708163 121.966837,43.0055102 122.188265,44.4391837 L122.188265,44.4391837 Z" id="Fill-83" fill="#231F20"></path>
                    <path d="M134.702857,47.0233673 L135.402857,47.6641837 C134.431429,48.2305102 133.216122,48.627449 131.755918,48.8560204 L131.237551,47.9692857 C132.507959,47.8488776 133.662041,47.5335714 134.702857,47.0233673 L134.702857,47.0233673 Z M135.565102,46.0580612 L135.565102,45.605 L133.31102,45.605 L133.297755,46.0580612 L135.565102,46.0580612 Z M138.803878,46.0580612 L138.816122,45.605 L136.516122,45.605 L136.516122,46.0580612 L138.803878,46.0580612 Z M136.516122,44.6917347 L138.790612,44.6917347 L138.790612,44.2121429 L136.516122,44.2121429 L136.516122,44.6917347 Z M133.324286,44.6917347 L135.565102,44.6917347 L135.565102,44.2121429 L133.324286,44.2121429 L133.324286,44.6917347 Z M136.807959,47.6907143 L137.397755,46.9713265 L132.313061,46.9713265 L132.313061,43.2988776 L135.565102,43.2988776 L135.565102,42.8713265 L131.412041,42.8713265 L131.412041,41.9580612 L140.694694,41.9580612 L140.694694,42.8713265 L136.529388,42.8713265 L136.516122,43.2988776 L139.793673,43.2988776 L139.793673,46.9713265 L137.689592,46.9713265 L137.689592,46.9978571 C138.906939,47.1835714 140.012041,47.555 141.005918,48.1111224 L140.448776,48.8947959 C139.230408,48.2692857 138.017143,47.8672449 136.807959,47.6907143 L136.807959,47.6907143 Z M137.540612,40.2478571 L134.515102,40.2478571 L134.528367,40.7019388 L137.553878,40.7019388 L137.540612,40.2478571 Z M133.524286,41.6152041 L133.524286,40.2478571 L131.769184,40.2478571 L131.769184,39.3345918 L133.524286,39.3345918 L133.524286,38.8560204 L134.528367,38.8560204 L134.528367,39.3345918 L137.540612,39.3345918 L137.553878,38.8560204 L138.537551,38.8560204 L138.537551,39.3345918 L140.299796,39.3345918 L140.299796,40.2478571 L138.537551,40.2478571 L138.537551,41.6152041 L133.524286,41.6152041 Z M130.298776,44.2835714 L130.298776,37.8060204 L134.969184,37.8060204 L134.969184,37.7805102 C134.800816,37.6856122 134.56,37.5090816 134.250816,37.2488776 L135.06,36.7182653 C135.513061,37.0417347 135.896735,37.405 136.212041,37.8060204 L140.791633,37.8060204 L140.791633,38.7192857 L131.30898,38.7192857 L131.30898,44.0182653 C131.30898,44.160102 131.286531,44.4519388 131.243673,44.8927551 C131.200816,45.3284694 131.156939,45.6784694 131.115102,45.9417347 C131.075306,46.205 131.030408,46.4468367 130.979388,46.6672449 C130.931429,46.8876531 130.862041,47.1121429 130.771224,47.3407143 C130.681429,47.5692857 130.568163,47.810102 130.43449,48.060102 C130.300816,48.3141837 130.144694,48.5754082 129.968163,48.8437755 L129.119184,48.2090816 C129.565102,47.5396939 129.871224,46.8468367 130.039592,46.1294898 C130.212041,45.4080612 130.298776,44.7927551 130.298776,44.2835714 L130.298776,44.2835714 Z" id="Fill-85" fill="#231F20"></path>
                    <path d="M153.599388,42.1461224 L154.220816,41.4144898 C155.335102,41.6685714 156.377959,42.3063265 157.349388,43.3246939 L156.714694,44.0961224 C155.907551,43.1155102 154.867755,42.4655102 153.599388,42.1461224 L153.599388,42.1461224 Z M155.270816,38.4022449 L155.87898,38.7777551 C155.633061,39.3736735 155.261633,39.8644898 154.765714,40.2481633 L154.116735,39.8532653 C154.713673,39.334898 155.097347,38.8512245 155.270816,38.4022449 L155.270816,38.4022449 Z M147.096327,47.49 L147.096327,43.8818367 C146.587143,44.162449 146.139184,44.3787755 145.75551,44.5297959 L145.107551,43.7073469 L147.096327,42.8328571 L147.096327,40.3002041 L145.521837,40.3002041 L145.521837,39.334898 L147.096327,39.334898 L147.096327,37.0481633 L148.106531,37.0481633 L148.106531,39.334898 L149.420816,39.334898 L149.420816,40.3002041 L148.106531,40.3002041 L148.106531,42.4114286 L149.395306,41.8032653 L149.420816,42.8328571 L148.106531,43.5002041 L148.106531,47.8910204 C148.106531,48.0726531 148.056531,48.245102 147.957551,48.4093878 C147.858571,48.5777551 147.727959,48.6981633 147.568776,48.7726531 C147.413673,48.8502041 147.184082,48.8910204 146.882041,48.895102 L146.033061,48.895102 L145.664694,47.8910204 C145.802449,47.8869388 145.967755,47.8930612 146.163673,47.9104082 C146.361633,47.9236735 146.497347,47.9297959 146.570816,47.9297959 C146.791224,47.9297959 146.934082,47.8981633 146.998367,47.8328571 C147.063673,47.7685714 147.096327,47.6542857 147.096327,47.49 L147.096327,47.49 Z M153.599388,47.0695918 L155.134082,47.0695918 L155.134082,46.2206122 L153.599388,46.2206122 L153.599388,47.0695918 Z M151.10551,47.0685714 L152.589184,47.0685714 L152.589184,46.2195918 L151.10551,46.2195918 L151.10551,47.0685714 Z M151.10551,45.3012245 L152.589184,45.3012245 L152.589184,44.4522449 L151.10551,44.4522449 L151.10551,45.3012245 Z M153.599388,45.3012245 L155.134082,45.3012245 L155.134082,44.4522449 L153.599388,44.4522449 L153.599388,45.3012245 Z M151.474898,40.3257143 L151.474898,40.3389796 L152.523878,40.3389796 L152.523878,38.5767347 L150.917755,38.6808163 C151.327959,39.0430612 151.676939,39.5165306 151.966735,40.0991837 L151.474898,40.3257143 Z M149.182041,41.3104082 L149.182041,40.3389796 L151.007551,40.3389796 C150.766735,39.8379592 150.399388,39.4236735 149.907551,39.095102 L150.509592,38.7522449 L150.509592,38.7195918 L149.511633,38.7522449 L148.942245,37.7808163 C152.03,37.7634694 154.371837,37.5022449 155.968776,36.9971429 L156.585102,37.7808163 C155.790204,38.0481633 154.770816,38.2685714 153.527959,38.4410204 L153.527959,40.3389796 L156.92898,40.3389796 L156.92898,41.3104082 L153.527959,41.3104082 L153.527959,43.312449 L152.523878,43.312449 L152.523878,41.5757143 L152.498367,41.5757143 C152.117755,42.3236735 151.519796,42.9604082 150.703469,43.4869388 L156.093265,43.4869388 L156.093265,48.8828571 L155.134082,48.8828571 L155.134082,48.0338776 L151.10551,48.0338776 L151.10551,48.8828571 L150.094286,48.8828571 L150.094286,43.8685714 L149.168776,44.3481633 L148.571837,43.4869388 C149.985102,42.9685714 150.986122,42.2430612 151.577959,41.3104082 L149.182041,41.3104082 Z" id="Fill-87" fill="#231F20"></path>
                    <mask id="mask-4" fill="white">
                        <use xlink:href="#path-3"></use>
                    </mask>
                    <g id="Clip-90"></g>
                    <path d="M165.512245,45.0867347 L170.5,45.0867347 L170.5,43.8816327 L165.512245,43.8816327 L165.512245,45.0867347 Z M165.512245,42.9173469 L170.5,42.9173469 L170.5,41.8418367 L165.512245,41.8418367 L165.512245,42.9173469 Z M164.470408,42.5285714 L164.443878,42.5285714 C164.202041,42.9214286 163.463265,43.7520408 162.227551,45.022449 L161.294898,44.4132653 C163.139796,42.7857143 164.338776,41.1938776 164.890816,39.6397959 L162.105102,39.6397959 L162.105102,38.6673469 L165.266327,38.6673469 C165.378571,38.3877551 165.54898,37.7632653 165.777551,36.7959184 L166.80102,37.022449 L166.361224,38.6673469 L173.116327,38.6673469 L173.116327,39.6397959 L165.978571,39.6397959 C165.780612,40.2316327 165.620408,40.6418367 165.49898,40.8704082 L171.510204,40.8704082 L171.510204,47.6520408 C171.510204,47.7377551 171.482653,47.8377551 171.426531,47.95 C171.37449,48.0622449 171.294898,48.1673469 171.186735,48.2673469 C171.077551,48.3663265 170.95102,48.4377551 170.804082,48.4806122 C170.657143,48.5244898 170.432653,48.5479592 170.130612,48.5520408 L169.055102,48.5520408 C168.826531,48.0857143 168.673469,47.744898 168.595918,47.5285714 C168.987755,47.5806122 169.396939,47.6061224 169.820408,47.6061224 C170.138776,47.6061224 170.331633,47.5897959 170.395918,47.5540816 C170.466327,47.5204082 170.5,47.4602041 170.5,47.3734694 L170.5,46.0581633 L165.512245,46.0581633 L165.512245,48.8561224 L164.470408,48.8561224 L164.470408,42.5285714 Z" id="Fill-89" fill="#231F20" mask="url(#mask-4)"></path>
                    <path d="M183.546939,42.3144898 L187.115306,42.2889796 L187.140816,40.8573469 L183.546939,40.8573469 L183.546939,42.3144898 Z M183.546939,39.8920408 L187.154082,39.8920408 L187.154082,38.5257143 L183.546939,38.5257143 L183.546939,39.8920408 Z M188.366327,43.4869388 L189.117347,44.1736735 C188.641837,44.6491837 187.890816,45.2593878 186.863265,46.0063265 C187.372449,46.8746939 188.186735,47.5328571 189.306122,47.9818367 L188.696939,48.817551 C187.816327,48.4767347 186.996939,47.8246939 186.241837,46.8614286 C185.489796,45.8940816 185.052041,44.6981633 184.926531,43.2726531 L183.546939,43.2726531 L183.546939,47.2889796 L185.580612,46.4532653 L185.580612,47.4634694 L182.736735,48.7134694 L181.902041,48.0471429 C182.329592,47.8359184 182.542857,47.5267347 182.542857,47.1206122 L182.542857,37.5532653 L188.165306,37.5532653 L188.165306,43.2726531 L185.92449,43.2726531 C186.019388,44.0583673 186.191837,44.6961224 186.442857,45.1838776 L188.366327,43.4869388 Z M182.012245,37.5277551 L182.012245,38.512449 L180.897959,41.3104082 C181.735714,42.1012245 182.154082,42.9236735 182.154082,43.7787755 C182.154082,44.3614286 181.986735,44.8410204 181.64898,45.2165306 C181.312245,45.5920408 180.890816,45.7797959 180.385714,45.7797959 C180.209184,45.7797959 179.97551,45.7583673 179.686735,45.7155102 L179.445918,44.6134694 C179.891837,44.717551 180.210204,44.7695918 180.406122,44.7695918 C180.914286,44.7695918 181.169388,44.4808163 181.169388,43.9012245 C181.169388,43.1155102 180.704082,42.3083673 179.770408,41.4787755 C180.370408,40.1022449 180.760204,39.117551 180.935714,38.5257143 L179.291837,38.5257143 L179.291837,48.8563265 L178.280612,48.8828571 L178.280612,37.5277551 L182.012245,37.5277551 Z" id="Fill-91" fill="#231F20" mask="url(#mask-4)"></path>
                    <path d="M200.893878,44.4778571 L201.872449,44.0441837 C202.99898,45.1186735 203.821429,46.4666327 204.340816,48.0860204 L203.329592,48.5523469 C203.20102,48.1156122 203.006122,47.6258163 202.745918,47.0819388 L198.886735,47.6778571 C197.630612,47.8717347 196.75102,48.0360204 196.25,48.1696939 L195.582653,47.1982653 C197.262245,45.7166327 198.342857,43.7421429 198.821429,41.2717347 L199.845918,41.6145918 C199.590816,43.462551 198.692857,45.2360204 197.15102,46.9329592 L197.17551,46.9584694 L202.313265,46.1747959 C201.945918,45.5829592 201.472449,45.0176531 200.893878,44.4778571 L200.893878,44.4778571 Z M194.922449,43.5778571 L194.138776,42.7941837 C195.719388,41.7666327 196.757143,40.462551 197.255102,38.8819388 L198.103061,39.412551 C197.658163,40.9676531 196.597959,42.3554082 194.922449,43.5778571 L194.922449,43.5778571 Z M197.732653,37.7156122 L202.021429,37.7156122 C202.617347,40.1686735 203.708163,41.8656122 205.292857,42.8064286 L204.554082,43.5778571 C203.008163,42.6880612 201.881633,41.0605102 201.172449,38.6941837 L197.732653,38.6941837 L197.732653,37.7156122 Z" id="Fill-92" fill="#231F20" mask="url(#mask-4)"></path>
                    <path d="M213.15102,45.144898 L216.694898,45.144898 L216.694898,43.1244898 L213.15102,43.1244898 L213.15102,45.144898 Z M217.743878,42.1591837 L217.743878,47.0561224 L216.693878,47.0561224 L216.693878,46.1102041 L213.15102,46.1102041 L213.15102,47.094898 L212.108163,47.094898 L212.108163,42.1591837 L217.743878,42.1591837 Z M210.618367,40.8571429 L219.161224,40.8571429 L219.161224,39.8530612 L210.618367,39.8530612 L210.618367,40.8571429 Z M220.904082,37.5153061 L220.904082,47.7030612 C220.904082,47.9836735 220.813265,48.2408163 220.632653,48.4744898 C220.45102,48.7112245 220.091837,48.8295918 219.557143,48.8306122 L218.24898,48.8306122 L217.906122,47.7163265 C218.181633,47.7602041 218.721429,47.7816327 219.52449,47.7816327 C219.744898,47.7816327 219.855102,47.6714286 219.855102,47.4510204 L219.855102,38.5255102 L211.273469,38.5255102 L211.273469,37.5153061 L220.904082,37.5153061 Z" id="Fill-93" fill="#231F20" mask="url(#mask-4)"></path>
                </g>
            </g>
        </g>
    </g>
</svg>